<svg width="24" height="24" viewBox="0 0 245 240" xmlns="http://www.w3.org/2000/svg" role="img" aria-label="Discord">
  <path fill="#5865F2" d="M104.4 103.9c-5.7 0-10.2 5-10.2 11.1s4.6 11.1 10.2 11.1c5.7 0 10.2-5 10.2-11.1s-4.6-11.1-10.2-11.1zm36.2 0c-5.7 0-10.2 5-10.2 11.1s4.6 11.1 10.2 11.1c5.7 0 10.2-5 10.2-11.1s-4.6-11.1-10.2-11.1z"/>
  <path fill="#5865F2" d="M189.5 20h-134C38.3 20 24 34.3 24 51.5v127C24 195.7 38.3 210 55.5 210h113.3l-5.3-18.4 12.8 11.9 12.1 11.2L220 220V51.5C220 34.3 205.7 20 188.5 20h1zm-35 137s-3.3-3.9-6-7.4c12-3.4 16.6-10.8 16.6-10.8-3.8 2.5-7.4 4.2-10.6 5.4-4.6 1.9-9 3.1-13.3 3.9-8.8 1.7-17 1.3-23.9-0.1-5.2-1-9.6-2.3-13.3-3.9-2.1-0.8-4.5-1.9-6.9-3.3-0.3-0.2-0.6-0.3-0.9-0.5-0.2-0.1-0.3-0.2-0.5-0.3-2.3-1.3-3.6-2.2-3.6-2.2s4.4 7.3 16 10.7c-2.7 3.5-6.1 7.6-6.1 7.6-20.1-0.6-27.7-13.8-27.7-13.8 0-29.2 13.1-52.9 13.1-52.9 13.1-9.8 25.5-9.5 25.5-9.5l0.9 1.1c-16.4 4.7-23.9 11.7-23.9 11.7s2 1.1 5.3 2.6c9.6-3.6 19.2-4.6 25.5-4.7 6.9 0.1 15.2 1.1 25 4.7 3.3-1.5 5.2-2.6 5.2-2.6s-7.3-7-23.7-11.7l1.3-1.5s12.4-0.3 25.5 9.5c0 0 13.1 23.7 13.1 52.9 0 0-7.7 13.2-27.8 13.8z"/>
</svg>
